<svg width="44" height="71" viewBox="0 0 44 71" fill="none" xmlns="http://www.w3.org/2000/svg">
<path d="M21.7597 0C22.634 0.0694077 22.5889 1.08016 22.7331 1.69239C23.7697 6.09055 26.1451 11.1773 28.6216 15.0704C29.4123 16.3128 29.0915 16.2313 30.5057 16.7139C31.4451 15.5864 33.0951 13.196 34.0714 12.4093C36.754 10.2473 40.7514 11.8337 41.5459 14.954C41.6616 15.4085 41.6866 15.8799 41.8294 16.3289C42.2137 16.5886 43.214 17.2212 43.4531 17.5388C43.779 17.9715 43.4539 18.4904 42.8783 18.479C41.7206 18.4561 40.5476 17.4978 39.4022 18.1411C38.0289 18.9123 37.6335 22.3339 37.2508 23.7453C35.8246 29.0057 30.5327 32.1411 24.7469 31.4532C24.3999 31.412 24.0485 31.3813 23.7089 31.302C23.032 32.6795 21.4892 35.8246 20.5383 37.0318C19.6611 38.1458 17.5455 38.3587 16.7931 37.0285C16.5215 36.7208 16.4438 36.2488 16.2347 36.0522C15.2968 35.1702 13.5195 35.888 13.5753 33.1711C13.2242 32.9851 12.8454 32.833 12.5328 32.5921C11.5561 31.8389 11.3311 30.4515 12.1917 29.5517C12.9745 28.733 14.3105 28.6917 15.395 28.515C16.648 28.3109 17.9205 28.0635 19.1916 27.9867C20.0245 26.8764 20.6688 25.5516 21.024 24.2429C19.2315 24.4967 17.4643 24.4114 15.8938 23.4741C15.5494 23.2684 15.2894 22.9738 14.9545 22.7668C14.6376 22.5709 14.243 22.4815 13.9126 22.2934C12.6083 21.5513 11.9989 20.6463 11.6571 19.3268C10.0029 18.2829 8.92981 16.8295 8.93751 14.911C7.46638 13.221 6.95307 11.9793 7.26941 9.74245C6.28951 7.62309 6.03627 6.15518 6.62182 3.82241C7.02383 2.22083 7.37913 2.35755 8.52654 3.25795C10.9997 5.19857 13.6655 7.12714 16.2638 8.91109C17.1201 9.49919 17.9769 10.0978 18.8721 10.6348C18.8413 10.3391 18.7465 10.037 18.6791 9.7459C17.9886 6.76829 18.8228 3.84773 20.5215 1.28132C20.8034 0.855287 21.1901 0.126949 21.7597 0ZM8.42676 11.1729C8.89912 13.9114 10.9655 15.366 13.809 15.8313C14.1762 15.8914 14.6403 15.8978 14.9771 16.0388C15.5192 16.2656 15.3582 17.1064 14.7604 17.1515C13.6763 17.2337 11.292 16.3706 10.3506 15.9409C11.0258 18.1353 13.5921 19.2011 15.91 19.0745C16.4134 19.047 17.3712 18.803 17.5826 19.4301C18.0548 20.8305 14.2585 20.2049 13.2783 19.9419C14.0728 22.2458 17.9117 21.9496 19.807 21.044C20.0921 20.9078 20.3775 20.6942 20.6882 20.6188C21.3841 20.4503 21.6259 21.0411 21.4561 21.5408C20.2445 22.5515 18.8199 22.5347 17.5104 22.9552C20.1185 23.5366 22.5352 22.8158 24.6058 21.3474C24.8774 21.1547 25.1497 20.8699 25.4608 20.7422C25.9605 20.5368 26.4999 21.0142 26.3241 21.4924C26.1141 22.0643 23.4317 23.6395 22.5113 23.7699C22.0731 25.4797 21.4282 26.8625 20.4445 28.3879C20.0905 28.9201 18.8717 29.9982 19.884 30.5207C20.4344 30.8048 21.58 30.4031 22.1757 30.2778C23.1902 30.0639 24.1602 30.2241 25.1806 30.3144C29.147 30.6652 33.153 28.9095 35.0435 25.6174C35.8391 24.2319 36.0346 23.0897 36.3671 21.6055C36.8696 19.3631 37.5663 16.7351 40.507 16.6742C40.2835 14.6166 39.3617 12.4164 36.6657 12.663C34.8538 12.8286 33.8774 14.5656 32.9402 15.799C32.3152 16.6214 29.5742 20.0736 28.4382 20.1877C28.0812 20.2237 27.7684 19.928 27.7405 19.6129C27.6991 19.1418 29.1272 18.2966 29.5732 17.7996C26.607 16.8125 22.7456 14.3837 20.0706 12.7545C19.2938 12.2813 18.4903 11.8455 17.7149 11.3707C15.1158 9.77973 12.6567 7.95555 10.2362 6.14362C9.43847 5.54644 8.66116 4.88635 7.81538 4.35027C6.98949 7.69329 8.85569 10.8686 12.1832 12.2753C12.5069 12.4123 13.0546 12.5536 13.3084 12.7557C13.6144 12.9994 13.5476 13.5305 13.1969 13.7121C12.1747 14.2414 9.07147 11.7954 8.42676 11.1729ZM18.9489 31.3583C18.2308 31.6493 17.1336 32.0856 16.4687 32.4543C16.3358 31.915 16.1299 31.6155 15.6629 31.2697C16.5683 31.0558 17.4805 30.7078 18.3036 30.3018C18.2395 30.058 18.2733 29.2906 18.2694 29.2832C17.2004 29.4168 14.5169 29.7544 13.5408 30.1078C12.6836 30.4181 12.8001 31.2935 13.4593 31.7253C14.0748 32.1283 14.695 32.2303 14.8536 33.0272C14.9457 33.4897 14.7216 33.9741 15.2173 34.305C15.8002 34.694 16.5215 34.6259 17.1341 35.1952C17.7452 35.7628 17.7076 36.9249 18.8422 36.745C19.6994 36.609 21.005 33.6201 21.4382 32.8662C21.5441 32.667 22.1798 31.6014 22.1515 31.4703C21.807 31.4837 21.1904 32.0893 20.9626 32.3179L19.6619 33.6445C19.3973 33.9174 19.1133 34.187 18.879 34.4829C18.6635 34.1072 18.359 33.826 17.9921 33.5708C18.3958 33.0586 19.3026 32.2097 19.8022 31.7577C19.4834 31.6567 19.2258 31.5339 18.9489 31.3583ZM27.3283 15.4907C24.9901 11.5393 23.1011 7.7245 21.8457 3.34793C21.7769 3.1077 21.6404 2.28531 21.4772 2.14449C19.3917 5.38116 19.381 8.09041 20.566 11.5522C20.8884 11.8119 21.3176 11.9927 21.674 12.2163C23.2125 13.1823 25.1238 14.3868 26.7818 15.1806C26.9635 15.2844 27.1446 15.3897 27.3283 15.4907Z" fill="#0D2E4C"/>
<path d="M37.3104 14.4151C37.5007 14.4092 37.684 14.4819 37.8104 14.6132C37.9366 14.7447 37.9925 14.9211 37.963 15.0942C37.917 15.3617 37.6787 15.5653 37.3856 15.5875C37.1549 15.6048 36.932 15.5056 36.8031 15.3283C36.6741 15.1511 36.6597 14.9236 36.765 14.7339C36.8703 14.5443 37.0791 14.4222 37.3104 14.4151Z" fill="#0D2E4C"/>
<path d="M21.4155 38.4922C21.7426 38.477 21.919 38.5624 22.0886 38.7997C23.1442 40.2766 23.1305 42.0341 22.5922 43.6538C24.0298 43.4452 23.5861 45.412 23.456 46.0521C26.6696 45.0239 30.191 42.4887 31.6301 39.9627C31.7938 39.6752 31.8712 39.3157 32.2217 39.1397C33.1456 39.0958 33.0717 39.8773 33.1487 40.4548C33.4064 42.3846 32.8576 43.6139 31.948 45.2895C32.5821 45.0107 33.0004 45.1644 33.0448 45.7517C33.1366 46.9714 32.2615 48.148 31.3003 49.0297C31.8239 49.234 31.7026 49.7338 31.6116 50.1275C31.3529 51.2471 30.4429 52.0762 29.3113 52.6983C30.0312 53.8198 27.6804 55.2978 26.5822 55.6712C27.4186 55.5181 27.78 55.7948 27.2725 56.4459C26.5709 57.3462 25.0007 58.1194 23.7459 58.3515C24.3111 58.5135 24.1474 58.8577 23.8281 59.1788C22.9232 60.0893 21.6641 60.392 20.2887 60.5078C20.6474 62.8967 22.8605 63.8759 25.2602 64.834C26.483 65.3224 27.7187 65.7718 28.9555 66.2325C30.38 66.7633 27.0212 67.5321 26.5961 67.9407C26.33 68.1968 26.0651 68.6855 25.8615 68.9922C25.5003 69.5398 24.442 69.3512 23.7459 69.3487C23.3821 69.6709 22.5309 70.8391 22.1538 70.981C21.5589 71.2048 20.7839 69.383 20.5692 69.0245C19.779 67.7046 18.9867 66.3829 18.2253 65.052C17.4425 65.0544 16.6617 65.0639 15.8826 64.9915C8.87867 64.3413 5.14464 60.3564 4.5525 54.9795C4.3931 53.5325 4.56084 53.2986 3.43731 52.1525C2.63863 52.2838 1.38557 52.3923 0.560942 52.4375C0.262351 52.4539 -0.000821772 52.3076 1.92841e-06 52.0497C0.00113452 51.678 1.43406 50.7831 1.72133 50.3529C1.85014 50.1598 1.89688 49.9346 1.97205 49.7255C2.61133 47.9465 4.78694 46.8554 7.04542 47.4734C8.77294 47.9461 9.31391 49.4739 10.4699 50.4811C11.2188 48.3478 13.4106 47.4915 15.3319 46.1608C17.9506 44.3471 19.8841 42.556 20.7984 39.8256C20.9328 39.4248 20.8916 38.702 21.4155 38.4922ZM11.1501 54.2434C11.3111 53.8059 11.8057 53.2348 12.0694 52.7785C10.6998 52.032 9.52065 50.9731 8.65081 49.8363C8.41545 49.5286 8.20252 49.1992 7.91608 48.9205C6.67579 47.7137 4.40433 47.8932 3.35906 49.1712C3.05501 49.5429 2.9367 49.9508 2.81098 50.3785C3.58948 51.0603 4.78776 52.093 5.18088 52.8933C5.48524 53.5128 5.43673 54.1951 5.52086 54.8495C6.27826 60.7395 10.4902 64.4085 17.9791 64.2552C19.1586 64.231 18.8054 64.2684 19.3113 65.0984C20.0622 66.3309 21.2522 68.7966 22.166 69.8425C22.3236 69.5029 22.6137 69.2257 22.8638 68.9288C22.5919 68.5854 20.5591 66.22 20.6044 65.9569C20.7874 64.8929 22.6995 67.9313 23.3481 68.5869C23.9243 68.604 24.5047 68.5464 25.0773 68.5869C25.2826 68.2145 25.5335 67.8672 25.7533 67.5018C25.2905 67.276 24.8382 67.0409 24.3982 66.7871L23.0242 66.0627C22.8034 65.9466 22.1609 65.6968 22.0913 65.4705C21.8657 64.7358 23.336 65.6376 23.4212 65.6816C24.347 66.1615 25.2596 66.6708 26.177 67.1456C26.6426 67.0044 27.1255 66.7978 27.5532 66.5915C24.0235 65.0764 19.8536 64.2718 19.3247 60.5078C18.3164 60.3149 15.6964 59.7703 15.2451 59.1832C15.0224 58.8935 15.3375 58.5117 15.7508 58.6164C16.1289 58.7123 16.4718 58.9381 16.8353 59.0716C18.6613 59.7427 20.6741 60.1268 22.4834 59.11C21.2241 59.0959 18.6384 58.1158 19.171 57.7481C19.4626 57.5467 20.184 57.8167 20.5325 57.8393C22.5547 57.9711 24.4584 57.5234 26.0313 56.4965C25.2553 56.5178 22.9466 56.4896 22.5252 56.1157C22.1068 55.7448 23.3997 55.7005 23.5591 55.6723C25.2109 55.3812 27.4366 54.6786 28.32 53.451C27.3496 53.9275 26.3111 54.0752 25.1914 54.016C24.9976 54.0057 23.9241 53.9846 24.0618 53.6714C24.1677 53.431 25.0593 53.384 25.3241 53.3196C27.3408 52.8287 30.0408 51.876 30.6246 50.0468C29.457 50.6084 28.362 50.9771 26.9997 51.0871C26.7946 51.1037 25.7847 51.2135 25.9803 50.8185C26.1428 50.4905 31.0255 49.7612 32.0808 46.2415C31.7731 46.4008 28.5548 48.1283 28.6818 47.1661C28.8157 47.0051 29.08 46.8802 29.2611 46.7534C30.9924 45.5417 31.9884 43.6139 32.1951 41.7993C32.2227 41.5567 32.276 41.0716 32.2217 40.8406C29.6317 44.5597 25.0322 46.5809 20.2752 48.0368C18.0752 48.7101 15.3186 49.3158 14.0521 51.0813C13.4788 51.8805 13.0949 52.9798 12.4781 53.8989C12.1763 54.3485 11.5102 55.1601 11.1501 54.2434ZM2.24942 51.1044L1.82594 51.518C1.96699 51.5021 2.10795 51.4858 2.24942 51.4727C2.38832 51.4696 2.52629 51.4662 2.6652 51.4727C2.54997 51.3359 2.43115 51.1895 2.24942 51.1044ZM21.7559 40.1541C21.615 40.4406 21.5156 40.7391 21.3806 41.0277C20.0343 43.9046 17.6108 45.7857 14.6368 47.6414C13.1355 48.5782 11.5223 49.5152 11.3354 51.1947C11.6283 51.5406 12.0949 51.7844 12.4881 52.0513C12.8295 51.2597 13.2035 50.5646 13.8872 49.9192C15.7628 48.2002 19.5385 47.498 22.166 46.5634C22.4246 45.922 22.5993 45.3365 22.5922 44.6552C22.2347 45.0199 20.7652 46.4209 20.1685 46.4857C19.4171 46.5673 20.2355 45.7826 20.3221 45.6869C21.5615 44.3182 22.0737 42.4838 21.8938 40.8121C21.8772 40.6573 21.876 40.2775 21.7559 40.1541Z" fill="#0D2E4C"/>
<path d="M22.1657 48.6122C22.4588 48.6053 22.6272 48.9347 22.362 49.0747C22.0579 49.2353 21.2545 49.4395 20.8775 49.56C16.4901 50.9622 15.7854 52.5196 14.017 55.7476C13.9451 55.8787 13.8916 55.9757 13.7194 56.0292C13.5562 56.0144 13.3896 55.9757 13.3438 55.8309C13.2347 55.4859 14.7325 53.0862 15.0428 52.6493C16.4529 50.6642 19.4521 49.2044 22.1657 48.6122Z" fill="#0D2E4C"/>
<path d="M5.05173 49.245C5.36865 49.1943 5.67661 49.3606 5.74065 49.6171C5.80481 49.8737 5.60094 50.1242 5.28464 50.1771C4.96637 50.2306 4.65513 50.0641 4.59066 49.806C4.52611 49.5477 4.73287 49.2961 5.05173 49.245Z" fill="#0D2E4C"/>
</svg>
